<?xml version="1.0" encoding="utf-8"?>
<!-- Generator: Adobe Illustrator 15.0.0, SVG Export Plug-In . SVG Version: 6.00 Build 0)  -->
<!DOCTYPE svg PUBLIC "-//W3C//DTD SVG 1.1//EN" "http://www.w3.org/Graphics/SVG/1.1/DTD/svg11.dtd">
<svg version="1.1" xmlns="http://www.w3.org/2000/svg" x="0px" y="0px"
	 width="490.39px" height="392.314px" viewBox="0 0 490.39 392.314" enable-background="new 0 0 490.39 392.314"
	 xml:space="preserve">
<g id="Logo_med_sorte_ellipser" display="none">
	<path display="inline" fill="#134395" d="M136.215,247.575c-1.582,5.324-3.106,10.586-4.567,15.769
		c13.985,13.591,31.536,23.528,51.11,28.293c1.914-4.039,3.836-8.198,5.754-12.44c-20.09-6.224-37.465-18.606-49.946-34.935
		c-8.496-1.073-16.886-2.288-24.878-3.612c1.082,1.797,2.195,3.574,3.371,5.309c0.078-0.301,0.156-0.602,0.238-0.903
		L136.215,247.575 M189.254,279.435c-0.25-0.074-0.492-0.164-0.742-0.238c-1.918,4.242-3.84,8.401-5.754,12.44
		c0.617,0.153,1.242,0.293,1.863,0.438c1.824-3.789,3.649-7.656,5.477-11.598C189.816,280.13,189.535,279.786,189.254,279.435
		 M265.09,272.008c0.82,2.11,1.625,4.207,2.402,6.289c0.609-0.375,1.203-0.769,1.805-1.155c-0.789-2.005-1.598-4.039-2.434-6.098
		C266.273,271.368,265.684,271.692,265.09,272.008 M266.863,271.044c0.836,2.059,1.645,4.093,2.434,6.098
		c11.91-7.668,22.262-17.548,30.477-29.055c-1.809,0.148-3.625,0.293-5.441,0.43C286.609,257.555,277.316,265.212,266.863,271.044
		 M213.777,283.579c2.758,3.609,5.477,7.105,8.149,10.48c16.566-1.895,32.031-7.41,45.566-15.763
		c-0.777-2.082-1.582-4.179-2.402-6.289c-14,7.446-29.965,11.672-46.926,11.672C216.695,283.68,215.234,283.642,213.777,283.579
		 M184.621,292.075c5.594,1.258,11.34,2.101,17.215,2.484c-3.871-4.47-7.789-9.177-11.738-14.082
		C188.27,284.419,186.445,288.286,184.621,292.075 M317.121,210.094c-0.012-0.62-0.516-1.125-1.141-1.125
		c-0.629,0-1.133,0.505-1.145,1.125h-0.105c-1.402,5.11-3.203,10.052-5.359,14.798c1.066-0.074,2.125-0.148,3.184-0.223
		c1.875-4.707,3.445-9.575,4.668-14.575H317.121 M312.922,151.133c0.906,0.047,1.813,0.094,2.723,0.145
		c-0.262-0.859-0.531-1.711-0.809-2.559c-0.945-0.054-1.895-0.109-2.844-0.164C312.309,149.411,312.621,150.266,312.922,151.133
		 M107.855,157.305c1.016-0.14,2.043-0.277,3.067-0.418c-0.395-0.785-0.781-1.566-1.176-2.347c-2.805,0.355-5.566,0.726-8.289,1.101
		c-0.23,0.891-0.453,1.785-0.66,2.684C103.129,157.973,105.48,157.633,107.855,157.305 M168.191,96.774
		c0.586-0.336,1.172-0.664,1.762-0.988c-3.012-4.297-6-8.477-8.961-12.539c-0.609,0.293-1.211,0.597-1.812,0.898
		C162.211,88.297,165.219,92.516,168.191,96.774 M179.172,91.325c3.422-6.074,6.855-11.844,10.289-17.274
		c-10.02,1.793-19.574,4.918-28.469,9.196c2.961,4.062,5.949,8.242,8.961,12.539C172.934,94.145,176.012,92.661,179.172,91.325
		 M104.906,144.669c-1.332,3.574-2.484,7.238-3.449,10.972c2.723-0.375,5.484-0.746,8.289-1.101
		C108.094,151.227,106.469,147.926,104.906,144.669 M118.719,171.903c-2.699-5.055-5.297-10.059-7.797-15.016
		c-1.024,0.141-2.051,0.278-3.067,0.418c-2.375,0.328-4.726,0.668-7.058,1.02c-1.883,8.105-2.883,16.551-2.883,25.23
		c0,13.004,2.234,25.485,6.336,37.086c7.086,0.965,14.434,1.863,22.008,2.68c-5.285-12.191-8.219-25.633-8.219-39.766
		C118.039,179.614,118.277,175.727,118.719,171.903 M168.191,96.774c-2.972-4.258-5.98-8.477-9.011-12.629
		c-18.485,9.313-34.012,23.625-44.813,41.168c3.414,6.887,7.028,13.91,10.828,21.016C133.59,125.387,148.848,107.938,168.191,96.774
		 M252.602,89.512c0.512-2.636,0.992-5.23,1.445-7.777c-13.727-6.063-28.91-9.434-44.883-9.434c-0.668,0-1.336,0.02-2.004,0.032
		c-2.305,4.066-4.633,8.308-6.976,12.722c5.832-1.062,11.839-1.625,17.98-1.625C230.266,83.43,241.863,85.579,252.602,89.512
		 M252.602,89.512c0.711,0.258,1.406,0.543,2.109,0.821c0.531-2.586,1.035-5.125,1.508-7.614c-0.719-0.336-1.445-0.664-2.172-0.984
		C253.594,84.282,253.113,86.876,252.602,89.512 M316.195,163.094h0.09c0.012,0.606,0.504,1.094,1.109,1.094
		c0.609,0,1.102-0.488,1.113-1.094h0.027c-0.75-4.019-1.727-7.961-2.891-11.816c-0.91-0.051-1.816-0.098-2.723-0.145
		C314.246,155.02,315.348,159.012,316.195,163.094 M311.992,148.555c0.949,0.055,1.898,0.11,2.844,0.164
		c-9.633-29.226-31.039-53.105-58.617-66c-0.473,2.489-0.977,5.028-1.508,7.614C281.117,100.696,302.055,121.938,311.992,148.555"/>
	<path display="inline" d="M135.598,207.294c-0.813-1.243-1.817-2.84-2.899-4.688l-0.929-1.504
		c-1.997,5.805-4.528,13.059-6.497,19.191l19.145,1.789L135.598,207.294 M190.426,279.767c7.465,2.152,15.281,3.465,23.351,3.813
		c-5.082-6.653-10.304-13.696-15.613-21.039C195.594,268.422,193.012,274.169,190.426,279.767 M171.809,256.7
		c5.66,7.668,11.308,15.047,16.902,22.051c2.676-5.918,5.348-12.012,8.004-18.23c-0.914-1.273-1.824-2.531-2.742-3.82H171.809
		 M281.176,346.579c-7.059,6.152-30.313-15.957-59.25-52.52c-4.192,0.48-8.442,0.745-12.762,0.745c-2.461,0-4.902-0.086-7.328-0.245
		c4.98,5.75,9.887,11.112,14.68,15.991c30.773,31.329,57.425,46.586,65.746,41.673c8.586-5.07,3.129-34.035-12.965-75.082
		c-0.602,0.387-1.195,0.78-1.805,1.155C280.012,311.704,286.961,341.544,281.176,346.579 M226.152,191.118
		c10.262,18.699,19.719,37.07,27.442,53.832c4.105,8.91,7.98,18.066,11.496,27.058c0.594-0.315,1.184-0.64,1.773-0.964
		c-9.938-24.489-23.398-52.844-39.722-82.77C226.813,189.219,226.484,190.169,226.152,191.118 M210.059,158.2
		c-1.672-2.832-3.348-5.633-5.032-8.414c-0.824,0.023-1.648,0.051-2.476,0.074c1.801,3,3.535,5.93,5.179,8.754
		c5.809,9.953,11.54,20.023,17.051,30.016c0.328-0.942,0.66-1.891,0.989-2.844C220.781,176.704,215.551,167.493,210.059,158.2
		 M221.926,294.06c-2.672-3.375-5.391-6.871-8.149-10.48c-8.07-0.348-15.886-1.66-23.351-3.813c-0.11,0.238-0.219,0.477-0.328,0.711
		c3.949,4.905,7.867,9.612,11.738,14.082c2.426,0.159,4.867,0.245,7.328,0.245C213.484,294.805,217.734,294.54,221.926,294.06
		 M237.574,149.294c-3.765,12.535-7.797,24.906-11.804,36.492c0.457,0.828,0.918,1.66,1.371,2.488
		c4.625-13.394,8.804-26.438,12.535-38.98C238.98,149.294,238.277,149.294,237.574,149.294 M216.211,212.118
		c-6.25,16.379-12.824,32.777-19.496,48.402c0.484,0.672,0.969,1.352,1.449,2.02c6.758-15.45,13.426-31.821,19.824-48.868
		c2.856-7.604,5.575-15.128,8.164-22.554c-0.453-0.828-0.914-1.66-1.371-2.488C221.859,196.985,218.965,204.896,216.211,212.118
		 M196.715,260.521c-2.656,6.219-5.328,12.313-8.004,18.23c0.18,0.227,0.363,0.461,0.543,0.684c0.387,0.116,0.781,0.223,1.172,0.332
		c2.586-5.598,5.168-11.345,7.738-17.227C197.684,261.872,197.199,261.192,196.715,260.521 M314.836,148.719
		c0.277,0.848,0.547,1.7,0.809,2.559c15.73,0.824,30.859,1.926,44.875,3.359c58.668,6,120.098,21.598,122.336,33.668
		c2.863,15.465-75.703,29.66-170.301,36.364c-3.324,8.352-7.633,16.203-12.781,23.418c39.203-3.238,77.469-8.95,106.082-14.782
		c51.844-10.569,83.52-31.026,83.52-42.667C489.375,172.766,415.461,154.719,314.836,148.719 M284.105,249.243
		c3.406-0.223,6.82-0.465,10.227-0.727c6.055-7.091,11.137-15.031,15.039-23.625c-8.32,0.57-16.754,1.086-25.266,1.538V249.243
		 M309.371,224.892c-3.902,8.594-8.984,16.534-15.039,23.625c1.816-0.137,3.633-0.281,5.441-0.43
		c5.148-7.215,9.457-15.066,12.781-23.418C311.496,224.743,310.438,224.817,309.371,224.892 M131.648,263.344
		c1.461-5.183,2.985-10.444,4.567-15.769l-18.918-2.521c-0.082,0.302-0.16,0.603-0.238,0.903
		C121.324,252.243,126.215,258.067,131.648,263.344 M173.73,101.239c-1.261-1.832-2.519-3.66-3.777-5.453
		c-0.59,0.324-1.176,0.652-1.762,0.988c1.504,2.152,2.997,4.313,4.473,6.477C173.02,102.579,173.375,101.903,173.73,101.239
		 M201.059,147.391c0.82-0.031,1.648-0.054,2.472-0.082c-6.394-10.519-12.82-20.66-19.207-30.351
		c-0.34,0.73-0.679,1.464-1.023,2.203C189.672,128.903,195.656,138.458,201.059,147.391 M177.738,301.989
		c-21.777,43.836-51.82,87.019-61.851,85.233c-12.024-2.14-3.293-56.409,15.761-123.879c-5.433-5.276-10.324-11.101-14.589-17.386
		c-6.625,24.645-11.293,47.938-13.672,68.304c-5.094,43.621-0.258,73.95,8.785,77.345c12.387,4.651,42.043-36.363,72.449-99.531
		c-0.621-0.146-1.246-0.285-1.863-0.438C181.078,295.176,179.402,298.633,177.738,301.989 M142.211,170.114
		c3.598,6.445,6.519,10.879,6.519,10.879s1.797,3.484,5.758,9.566c4.664-13.418,9.653-26.523,14.813-39.16
		c-6.66,0.41-13.352,0.887-20.016,1.43C146.887,158.489,144.527,164.255,142.211,170.114 M183.301,119.161
		c-3.446-5.278-7.004-10.606-10.637-15.91c-7.617,14.433-15.125,30.269-22.312,47.078c6.519-0.532,13.183-1.012,19.984-1.438
		C174.57,138.622,178.914,128.661,183.301,119.161 M184.324,116.958c-3.547-5.387-7.082-10.621-10.594-15.719
		c-0.355,0.664-0.71,1.34-1.066,2.012c3.633,5.304,7.191,10.632,10.637,15.91C183.645,118.422,183.984,117.688,184.324,116.958
		 M7.855,189.305c0-10.578,40.426-23.117,92.942-30.98c0.207-0.899,0.43-1.793,0.66-2.684C40.465,164.106,1,177.419,1,190.637
		c0,12.203,31.332,31.188,82.855,44c8.68,2.16,18.879,4.192,29.833,6.013c-3.774-6.297-6.958-12.984-9.438-20.008
		C47.574,212.899,7.855,200.61,7.855,189.305 M157.789,226.13c-10.836-0.773-21.379-1.719-31.531-2.809
		c3.25,7.504,7.406,14.522,12.308,20.94c6.391,0.81,12.84,1.535,19.223,2.168V226.13 M128.457,152.368
		c0.414,0.762,0.84,1.523,1.258,2.285c6.453-0.68,13-1.285,19.57-1.824c0.356-0.836,0.711-1.668,1.067-2.5
		C142.852,150.942,135.547,151.622,128.457,152.368 M126.258,223.321c-7.574-0.816-14.922-1.715-22.008-2.68
		c2.48,7.023,5.664,13.711,9.438,20.008c7.992,1.324,16.382,2.539,24.878,3.612C133.664,237.844,129.508,230.825,126.258,223.321
		 M118.719,171.903c4.558,8.527,9.386,17.176,14.492,25.914c3.758,6.434,8.945,13.828,13.113,20.633h22.11
		c-5.192-8.102-11.395-17.742-16.211-25.438c-8.024-12.82-15.543-25.691-22.508-38.359c-2.578,0.273-5.137,0.555-7.684,0.852
		C120.488,160.801,119.371,166.282,118.719,171.903 M125.195,146.329c-0.875,2.179-1.664,4.398-2.386,6.648
		c1.867-0.207,3.75-0.41,5.648-0.609C127.355,150.348,126.266,148.337,125.195,146.329 M79.945,7.567
		c7.895-4.66,35.93,21.277,65.082,57.953c4.719,5.938,9.457,12.199,14.153,18.625c0.601-0.301,1.203-0.605,1.812-0.898
		C121.578,29.176,87.23-3.343,76.098,3.231c-8.719,5.152-9.059,35.559,3.535,77.781c5.719,19.168,14.305,40.723,25.273,63.657
		c2.535-6.793,5.715-13.27,9.461-19.356C84.105,64.243,69.52,13.727,79.945,7.567 M122.809,152.977
		c0.722-2.25,1.511-4.469,2.386-6.648c-3.8-7.106-7.414-14.129-10.828-21.016c-3.746,6.086-6.926,12.563-9.461,19.356
		c1.563,3.257,3.188,6.558,4.84,9.871C114.012,153.997,118.363,153.473,122.809,152.977 M122.031,155.505
		c-3.746,0.433-7.453,0.894-11.109,1.382c2.5,4.957,5.098,9.961,7.797,15.016C119.371,166.282,120.488,160.801,122.031,155.505
		 M129.715,154.653c-0.418-0.762-0.844-1.523-1.258-2.285c-1.898,0.199-3.781,0.402-5.648,0.609c-0.27,0.84-0.532,1.68-0.778,2.528
		C124.578,155.208,127.137,154.926,129.715,154.653 M122.809,152.977c-4.446,0.496-8.797,1.02-13.063,1.563
		c0.395,0.781,0.781,1.562,1.176,2.347c3.656-0.488,7.363-0.949,11.109-1.382C122.277,154.657,122.539,153.817,122.809,152.977
		 M150.352,150.329c-0.356,0.832-0.711,1.664-1.067,2.5c6.664-0.543,13.356-1.02,20.016-1.43c0.344-0.84,0.691-1.672,1.035-2.508
		C163.535,149.317,156.871,149.797,150.352,150.329 M200.184,85.055c2.343-4.414,4.671-8.656,6.976-12.722
		c-6.031,0.105-11.941,0.687-17.699,1.718c-3.434,5.43-6.867,11.2-10.289,17.274C185.836,88.501,192.871,86.383,200.184,85.055
		 M253.688,17.848c7.082,2.66,6.535,29.067,0.359,63.887c0.727,0.32,1.453,0.648,2.172,0.984
		c7.652-40.218,7.441-67.203-1.566-70.586c-9.48-3.558-33.375,15.247-58.359,51.543c-2.273,3.301-4.551,6.762-6.832,10.375
		c5.758-1.031,11.668-1.613,17.699-1.718C227.391,36.594,245.504,14.778,253.688,17.848 M184.324,116.958
		c5.281-11.336,10.61-22.032,15.86-31.903c-7.313,1.328-14.348,3.446-21.012,6.27c-1.82,3.222-3.633,6.527-5.442,9.914
		C177.242,106.337,180.777,111.571,184.324,116.958 M238.363,146.653c-0.261,0.879-0.523,1.762-0.789,2.641c0.703,0,1.406,0,2.102,0
		c0.262-0.887,0.519-1.766,0.777-2.649C239.758,146.649,239.059,146.649,238.363,146.653 M203.531,147.309
		c-0.824,0.028-1.652,0.051-2.472,0.082c0.5,0.824,1,1.656,1.492,2.469c0.828-0.023,1.652-0.051,2.476-0.074
		C204.527,148.962,204.031,148.13,203.531,147.309 M170.336,148.891c-0.344,0.836-0.691,1.668-1.035,2.508
		c11.281-0.691,22.465-1.195,33.25-1.539c-0.492-0.813-0.992-1.645-1.492-2.469C190.563,147.762,180.309,148.266,170.336,148.891
		 M237.574,149.294c0.266-0.879,0.528-1.762,0.789-2.641c-11.847,0.051-23.476,0.277-34.832,0.656
		c0.5,0.821,0.996,1.653,1.496,2.477C216.488,149.446,227.461,149.294,237.574,149.294 M240.453,146.645
		c-0.258,0.883-0.515,1.762-0.777,2.649c1.066,0.003,2.133,0.003,3.179,0.011c23.618,0.125,47.442,0.692,70.067,1.828
		c-0.301-0.867-0.613-1.722-0.93-2.578c-21.664-1.238-44.527-1.918-68.137-1.918C242.719,146.637,241.59,146.641,240.453,146.645
		 M190.098,280.478c0.109-0.234,0.218-0.473,0.328-0.711c-0.391-0.109-0.785-0.216-1.172-0.332
		C189.535,279.786,189.816,280.13,190.098,280.478 M224.781,188.63c0.457,0.828,0.918,1.66,1.371,2.488
		c0.332-0.949,0.661-1.899,0.989-2.844c-0.453-0.828-0.914-1.66-1.371-2.488C225.441,186.739,225.109,187.688,224.781,188.63
		 M188.512,279.196c0.25,0.074,0.492,0.164,0.742,0.238c-0.18-0.223-0.363-0.457-0.543-0.684
		C188.645,278.899,188.578,279.047,188.512,279.196 M238.363,146.653c0.696-0.004,1.395-0.004,2.09-0.008
		c5.988-20.375,10.77-39.383,14.258-56.312c-0.703-0.278-1.398-0.563-2.109-0.821c-0.973,5-2.043,10.133-3.223,15.375
		C246.344,118.38,242.535,132.59,238.363,146.653"/>
	<rect x="1" y="2.567" display="inline" fill="none" width="488.881" height="390"/>
	<path display="inline" fill="#134395" d="M199.461,245.383c0,1.681-0.164,2.875-0.492,3.575c-0.324,0.703-1.071,1.472-2.235,2.313
		c-1.168,0.698-2.343,1.191-3.531,1.473c-1.191,0.281-2.832,0.422-4.93,0.422h-13.984c-2.055,0-3.711-0.141-4.969-0.422
		c-1.257-0.281-2.468-0.774-3.632-1.473c-1.075-0.793-1.797-1.574-2.168-2.349c-0.375-0.769-0.559-1.929-0.559-3.468V222.04h10.875
		v22.136c0,0.375,0.012,0.704,0.035,0.981c0.024,0.277,0.207,0.558,0.559,0.836c0.347,0.281,1.386,0.422,3.109,0.422h7.34
		c1.633,0,2.68-0.188,3.148-0.563c0.231-0.138,0.383-0.302,0.453-0.484c0.071-0.188,0.106-0.535,0.106-1.051V222.04h10.875V245.383"
		/>
	<path display="inline" fill="#134395" d="M204.609,228.286c0-2.047,0.793-3.645,2.379-4.785c1.586-1.141,3.852-1.711,6.793-1.711
		c2.332,0,4.317,0.438,5.949,1.324c1.633,0.879,2.801,2.113,3.5,3.69l7.629,17.985v-22.707h10.375v25.828
		c0,1.633-0.871,3.004-2.617,4.101c-1.746,1.103-3.902,1.653-6.461,1.653c-4.797,0-7.918-1.754-9.363-5.262l-7.684-17.853v22.614
		h-10.5V228.286"/>
	<path display="inline" fill="#134395" d="M246.262,228.344c0-2.144,0.777-3.655,2.34-4.519s2.867-1.375,3.918-1.539
		c1.047-0.168,2.785-0.246,5.211-0.246h21.469v6.75h-18.352c-2.477,0-3.711,0.648-3.711,1.953v3.422h22.063v6.75h-22.063v12.25
		h-10.875V228.344"/>
</g>
<g id="Logo_med_hvide_ellipser">
	<path fill="#134395" d="M136.215,247.575c-1.582,5.324-3.106,10.586-4.567,15.769c13.985,13.591,31.536,23.528,51.11,28.293
		c1.914-4.039,3.836-8.198,5.754-12.44c-20.09-6.224-37.465-18.606-49.946-34.935c-8.496-1.073-16.886-2.288-24.878-3.612
		c1.082,1.797,2.195,3.574,3.371,5.309c0.078-0.301,0.156-0.602,0.238-0.903L136.215,247.575 M189.254,279.435
		c-0.25-0.074-0.492-0.164-0.742-0.238c-1.918,4.242-3.84,8.401-5.754,12.44c0.617,0.153,1.242,0.293,1.863,0.438
		c1.824-3.789,3.649-7.656,5.477-11.598C189.816,280.13,189.535,279.786,189.254,279.435 M265.09,272.008
		c0.82,2.11,1.625,4.207,2.402,6.289c0.609-0.375,1.203-0.769,1.805-1.155c-0.789-2.005-1.598-4.039-2.434-6.098
		C266.273,271.368,265.684,271.692,265.09,272.008 M266.863,271.044c0.836,2.059,1.645,4.093,2.434,6.098
		c11.91-7.668,22.262-17.548,30.477-29.055c-1.809,0.148-3.625,0.293-5.441,0.43C286.609,257.555,277.316,265.212,266.863,271.044
		 M213.777,283.579c2.758,3.609,5.477,7.105,8.149,10.48c16.566-1.895,32.031-7.41,45.566-15.763
		c-0.777-2.082-1.582-4.179-2.402-6.289c-14,7.446-29.965,11.672-46.926,11.672C216.695,283.68,215.234,283.642,213.777,283.579
		 M184.621,292.075c5.594,1.258,11.34,2.101,17.215,2.484c-3.871-4.47-7.789-9.177-11.738-14.082
		C188.27,284.419,186.445,288.286,184.621,292.075 M317.121,210.094c-0.012-0.62-0.516-1.125-1.141-1.125
		c-0.629,0-1.133,0.505-1.145,1.125h-0.105c-1.402,5.11-3.203,10.052-5.359,14.798c1.066-0.074,2.125-0.148,3.184-0.223
		c1.875-4.707,3.445-9.575,4.668-14.575H317.121 M312.922,151.133c0.906,0.047,1.813,0.094,2.723,0.145
		c-0.262-0.859-0.531-1.711-0.809-2.559c-0.945-0.054-1.895-0.109-2.844-0.164C312.309,149.411,312.621,150.266,312.922,151.133
		 M107.855,157.305c1.016-0.14,2.043-0.277,3.067-0.418c-0.395-0.785-0.781-1.566-1.176-2.347c-2.805,0.355-5.566,0.726-8.289,1.101
		c-0.23,0.891-0.453,1.785-0.66,2.684C103.129,157.973,105.48,157.633,107.855,157.305 M168.191,96.774
		c0.586-0.336,1.172-0.664,1.762-0.988c-3.012-4.297-6-8.477-8.961-12.539c-0.609,0.293-1.211,0.597-1.812,0.898
		C162.211,88.297,165.219,92.516,168.191,96.774 M179.172,91.325c3.422-6.074,6.855-11.844,10.289-17.274
		c-10.02,1.793-19.574,4.918-28.469,9.196c2.961,4.062,5.949,8.242,8.961,12.539C172.934,94.145,176.012,92.661,179.172,91.325
		 M104.906,144.669c-1.332,3.574-2.484,7.238-3.449,10.972c2.723-0.375,5.484-0.746,8.289-1.101
		C108.094,151.227,106.469,147.926,104.906,144.669 M118.719,171.903c-2.699-5.055-5.297-10.059-7.797-15.016
		c-1.024,0.141-2.051,0.278-3.067,0.418c-2.375,0.328-4.726,0.668-7.058,1.02c-1.883,8.105-2.883,16.551-2.883,25.23
		c0,13.004,2.234,25.485,6.336,37.086c7.086,0.965,14.434,1.863,22.008,2.68c-5.285-12.191-8.219-25.633-8.219-39.766
		C118.039,179.614,118.277,175.727,118.719,171.903 M168.191,96.774c-2.972-4.258-5.98-8.477-9.011-12.629
		c-18.485,9.313-34.012,23.625-44.813,41.168c3.414,6.887,7.028,13.91,10.828,21.016C133.59,125.387,148.848,107.938,168.191,96.774
		 M252.602,89.512c0.512-2.636,0.992-5.23,1.445-7.777c-13.727-6.063-28.91-9.434-44.883-9.434c-0.668,0-1.336,0.02-2.004,0.032
		c-2.305,4.066-4.633,8.308-6.976,12.722c5.832-1.062,11.839-1.625,17.98-1.625C230.266,83.43,241.863,85.579,252.602,89.512
		 M252.602,89.512c0.711,0.258,1.406,0.543,2.109,0.821c0.531-2.586,1.035-5.125,1.508-7.614c-0.719-0.336-1.445-0.664-2.172-0.984
		C253.594,84.282,253.113,86.876,252.602,89.512 M316.195,163.094h0.09c0.012,0.606,0.504,1.094,1.109,1.094
		c0.609,0,1.102-0.488,1.113-1.094h0.027c-0.75-4.019-1.727-7.961-2.891-11.816c-0.91-0.051-1.816-0.098-2.723-0.145
		C314.246,155.02,315.348,159.012,316.195,163.094 M311.992,148.555c0.949,0.055,1.898,0.11,2.844,0.164
		c-9.633-29.226-31.039-53.105-58.617-66c-0.473,2.489-0.977,5.028-1.508,7.614C281.117,100.696,302.055,121.938,311.992,148.555"/>
	<path fill="#FFFFFF" d="M135.598,207.294c-0.813-1.243-1.817-2.84-2.899-4.688l-0.929-1.504
		c-1.997,5.805-4.528,13.059-6.497,19.191l19.145,1.789L135.598,207.294 M190.426,279.767c7.465,2.152,15.281,3.465,23.351,3.813
		c-5.082-6.653-10.304-13.696-15.613-21.039C195.594,268.422,193.012,274.169,190.426,279.767 M171.809,256.7
		c5.66,7.668,11.308,15.047,16.902,22.051c2.676-5.918,5.348-12.012,8.004-18.23c-0.914-1.273-1.824-2.531-2.742-3.82H171.809
		 M281.176,346.579c-7.059,6.152-30.313-15.957-59.25-52.52c-4.192,0.48-8.442,0.745-12.762,0.745c-2.461,0-4.902-0.086-7.328-0.245
		c4.98,5.75,9.887,11.112,14.68,15.991c30.773,31.329,57.425,46.586,65.746,41.673c8.586-5.07,3.129-34.035-12.965-75.082
		c-0.602,0.387-1.195,0.78-1.805,1.155C280.012,311.704,286.961,341.544,281.176,346.579 M226.152,191.118
		c10.262,18.699,19.719,37.07,27.442,53.832c4.105,8.91,7.98,18.066,11.496,27.058c0.594-0.315,1.184-0.64,1.773-0.964
		c-9.938-24.489-23.398-52.844-39.722-82.77C226.813,189.219,226.484,190.169,226.152,191.118 M210.059,158.2
		c-1.672-2.832-3.348-5.633-5.032-8.414c-0.824,0.023-1.648,0.051-2.476,0.074c1.801,3,3.535,5.93,5.179,8.754
		c5.809,9.953,11.54,20.023,17.051,30.016c0.328-0.942,0.66-1.891,0.989-2.844C220.781,176.704,215.551,167.493,210.059,158.2
		 M221.926,294.06c-2.672-3.375-5.391-6.871-8.149-10.48c-8.07-0.348-15.886-1.66-23.351-3.813c-0.11,0.238-0.219,0.477-0.328,0.711
		c3.949,4.905,7.867,9.612,11.738,14.082c2.426,0.159,4.867,0.245,7.328,0.245C213.484,294.805,217.734,294.54,221.926,294.06
		 M237.574,149.294c-3.765,12.535-7.797,24.906-11.804,36.492c0.457,0.828,0.918,1.66,1.371,2.488
		c4.625-13.394,8.804-26.438,12.535-38.98C238.98,149.294,238.277,149.294,237.574,149.294 M216.211,212.118
		c-6.25,16.379-12.824,32.777-19.496,48.402c0.484,0.672,0.969,1.352,1.449,2.02c6.758-15.45,13.426-31.821,19.824-48.868
		c2.856-7.604,5.575-15.128,8.164-22.554c-0.453-0.828-0.914-1.66-1.371-2.488C221.859,196.985,218.965,204.896,216.211,212.118
		 M196.715,260.521c-2.656,6.219-5.328,12.313-8.004,18.23c0.18,0.227,0.363,0.461,0.543,0.684c0.387,0.116,0.781,0.223,1.172,0.332
		c2.586-5.598,5.168-11.345,7.738-17.227C197.684,261.872,197.199,261.192,196.715,260.521 M314.836,148.719
		c0.277,0.848,0.547,1.7,0.809,2.559c15.73,0.824,30.859,1.926,44.875,3.359c58.668,6,120.098,21.598,122.336,33.668
		c2.863,15.465-75.703,29.66-170.301,36.364c-3.324,8.352-7.633,16.203-12.781,23.418c39.203-3.238,77.469-8.95,106.082-14.782
		c51.844-10.569,83.52-31.026,83.52-42.667C489.375,172.766,415.461,154.719,314.836,148.719 M284.105,249.243
		c3.406-0.223,6.82-0.465,10.227-0.727c6.055-7.091,11.137-15.031,15.039-23.625c-8.32,0.57-16.754,1.086-25.266,1.538V249.243
		 M309.371,224.892c-3.902,8.594-8.984,16.534-15.039,23.625c1.816-0.137,3.633-0.281,5.441-0.43
		c5.148-7.215,9.457-15.066,12.781-23.418C311.496,224.743,310.438,224.817,309.371,224.892 M131.648,263.344
		c1.461-5.183,2.985-10.444,4.567-15.769l-18.918-2.521c-0.082,0.302-0.16,0.603-0.238,0.903
		C121.324,252.243,126.215,258.067,131.648,263.344 M173.73,101.239c-1.261-1.832-2.519-3.66-3.777-5.453
		c-0.59,0.324-1.176,0.652-1.762,0.988c1.504,2.152,2.997,4.313,4.473,6.477C173.02,102.579,173.375,101.903,173.73,101.239
		 M201.059,147.391c0.82-0.031,1.648-0.054,2.472-0.082c-6.394-10.519-12.82-20.66-19.207-30.351
		c-0.34,0.73-0.679,1.464-1.023,2.203C189.672,128.903,195.656,138.458,201.059,147.391 M177.738,301.989
		c-21.777,43.836-51.82,87.019-61.851,85.233c-12.024-2.14-3.293-56.409,15.761-123.879c-5.433-5.276-10.324-11.101-14.589-17.386
		c-6.625,24.645-11.293,47.938-13.672,68.304c-5.094,43.621-0.258,73.95,8.785,77.345c12.387,4.651,42.043-36.363,72.449-99.531
		c-0.621-0.146-1.246-0.285-1.863-0.438C181.078,295.176,179.402,298.633,177.738,301.989 M142.211,170.114
		c3.598,6.445,6.519,10.879,6.519,10.879s1.797,3.484,5.758,9.566c4.664-13.418,9.653-26.523,14.813-39.16
		c-6.66,0.41-13.352,0.887-20.016,1.43C146.887,158.489,144.527,164.255,142.211,170.114 M183.301,119.161
		c-3.446-5.278-7.004-10.606-10.637-15.91c-7.617,14.433-15.125,30.269-22.312,47.078c6.519-0.532,13.183-1.012,19.984-1.438
		C174.57,138.622,178.914,128.661,183.301,119.161 M184.324,116.958c-3.547-5.387-7.082-10.621-10.594-15.719
		c-0.355,0.664-0.71,1.34-1.066,2.012c3.633,5.304,7.191,10.632,10.637,15.91C183.645,118.422,183.984,117.688,184.324,116.958
		 M7.855,189.305c0-10.578,40.426-23.117,92.942-30.98c0.207-0.899,0.43-1.793,0.66-2.684C40.465,164.106,1,177.419,1,190.637
		c0,12.203,31.332,31.188,82.855,44c8.68,2.16,18.879,4.192,29.833,6.013c-3.774-6.297-6.958-12.984-9.438-20.008
		C47.574,212.899,7.855,200.61,7.855,189.305 M157.789,226.13c-10.836-0.773-21.379-1.719-31.531-2.809
		c3.25,7.504,7.406,14.522,12.308,20.94c6.391,0.81,12.84,1.535,19.223,2.168V226.13 M128.457,152.368
		c0.414,0.762,0.84,1.523,1.258,2.285c6.453-0.68,13-1.285,19.57-1.824c0.356-0.836,0.711-1.668,1.067-2.5
		C142.852,150.942,135.547,151.622,128.457,152.368 M126.258,223.321c-7.574-0.816-14.922-1.715-22.008-2.68
		c2.48,7.023,5.664,13.711,9.438,20.008c7.992,1.324,16.382,2.539,24.878,3.612C133.664,237.844,129.508,230.825,126.258,223.321
		 M118.719,171.903c4.558,8.527,9.386,17.176,14.492,25.914c3.758,6.434,8.945,13.828,13.113,20.633h22.11
		c-5.192-8.102-11.395-17.742-16.211-25.438c-8.024-12.82-15.543-25.691-22.508-38.359c-2.578,0.273-5.137,0.555-7.684,0.852
		C120.488,160.801,119.371,166.282,118.719,171.903 M125.195,146.329c-0.875,2.179-1.664,4.398-2.386,6.648
		c1.867-0.207,3.75-0.41,5.648-0.609C127.355,150.348,126.266,148.337,125.195,146.329 M79.945,7.567
		c7.895-4.66,35.93,21.277,65.082,57.953c4.719,5.938,9.457,12.199,14.153,18.625c0.601-0.301,1.203-0.605,1.812-0.898
		C121.578,29.176,87.23-3.343,76.098,3.231c-8.719,5.152-9.059,35.559,3.535,77.781c5.719,19.168,14.305,40.723,25.273,63.657
		c2.535-6.793,5.715-13.27,9.461-19.356C84.105,64.243,69.52,13.727,79.945,7.567 M122.809,152.977
		c0.722-2.25,1.511-4.469,2.386-6.648c-3.8-7.106-7.414-14.129-10.828-21.016c-3.746,6.086-6.926,12.563-9.461,19.356
		c1.563,3.257,3.188,6.558,4.84,9.871C114.012,153.997,118.363,153.473,122.809,152.977 M122.031,155.505
		c-3.746,0.433-7.453,0.894-11.109,1.382c2.5,4.957,5.098,9.961,7.797,15.016C119.371,166.282,120.488,160.801,122.031,155.505
		 M129.715,154.653c-0.418-0.762-0.844-1.523-1.258-2.285c-1.898,0.199-3.781,0.402-5.648,0.609c-0.27,0.84-0.532,1.68-0.778,2.528
		C124.578,155.208,127.137,154.926,129.715,154.653 M122.809,152.977c-4.446,0.496-8.797,1.02-13.063,1.563
		c0.395,0.781,0.781,1.562,1.176,2.347c3.656-0.488,7.363-0.949,11.109-1.382C122.277,154.657,122.539,153.817,122.809,152.977
		 M150.352,150.329c-0.356,0.832-0.711,1.664-1.067,2.5c6.664-0.543,13.356-1.02,20.016-1.43c0.344-0.84,0.691-1.672,1.035-2.508
		C163.535,149.317,156.871,149.797,150.352,150.329 M200.184,85.055c2.343-4.414,4.671-8.656,6.976-12.722
		c-6.031,0.105-11.941,0.687-17.699,1.718c-3.434,5.43-6.867,11.2-10.289,17.274C185.836,88.501,192.871,86.383,200.184,85.055
		 M253.688,17.848c7.082,2.66,6.535,29.067,0.359,63.887c0.727,0.32,1.453,0.648,2.172,0.984
		c7.652-40.218,7.441-67.203-1.566-70.586c-9.48-3.558-33.375,15.247-58.359,51.543c-2.273,3.301-4.551,6.762-6.832,10.375
		c5.758-1.031,11.668-1.613,17.699-1.718C227.391,36.594,245.504,14.778,253.688,17.848 M184.324,116.958
		c5.281-11.336,10.61-22.032,15.86-31.903c-7.313,1.328-14.348,3.446-21.012,6.27c-1.82,3.222-3.633,6.527-5.442,9.914
		C177.242,106.337,180.777,111.571,184.324,116.958 M238.363,146.653c-0.261,0.879-0.523,1.762-0.789,2.641c0.703,0,1.406,0,2.102,0
		c0.262-0.887,0.519-1.766,0.777-2.649C239.758,146.649,239.059,146.649,238.363,146.653 M203.531,147.309
		c-0.824,0.028-1.652,0.051-2.472,0.082c0.5,0.824,1,1.656,1.492,2.469c0.828-0.023,1.652-0.051,2.476-0.074
		C204.527,148.962,204.031,148.13,203.531,147.309 M170.336,148.891c-0.344,0.836-0.691,1.668-1.035,2.508
		c11.281-0.691,22.465-1.195,33.25-1.539c-0.492-0.813-0.992-1.645-1.492-2.469C190.563,147.762,180.309,148.266,170.336,148.891
		 M237.574,149.294c0.266-0.879,0.528-1.762,0.789-2.641c-11.847,0.051-23.476,0.277-34.832,0.656
		c0.5,0.821,0.996,1.653,1.496,2.477C216.488,149.446,227.461,149.294,237.574,149.294 M240.453,146.645
		c-0.258,0.883-0.515,1.762-0.777,2.649c1.066,0.003,2.133,0.003,3.179,0.011c23.618,0.125,47.442,0.692,70.067,1.828
		c-0.301-0.867-0.613-1.722-0.93-2.578c-21.664-1.238-44.527-1.918-68.137-1.918C242.719,146.637,241.59,146.641,240.453,146.645
		 M190.098,280.478c0.109-0.234,0.218-0.473,0.328-0.711c-0.391-0.109-0.785-0.216-1.172-0.332
		C189.535,279.786,189.816,280.13,190.098,280.478 M224.781,188.63c0.457,0.828,0.918,1.66,1.371,2.488
		c0.332-0.949,0.661-1.899,0.989-2.844c-0.453-0.828-0.914-1.66-1.371-2.488C225.441,186.739,225.109,187.688,224.781,188.63
		 M188.512,279.196c0.25,0.074,0.492,0.164,0.742,0.238c-0.18-0.223-0.363-0.457-0.543-0.684
		C188.645,278.899,188.578,279.047,188.512,279.196 M238.363,146.653c0.696-0.004,1.395-0.004,2.09-0.008
		c5.988-20.375,10.77-39.383,14.258-56.312c-0.703-0.278-1.398-0.563-2.109-0.821c-0.973,5-2.043,10.133-3.223,15.375
		C246.344,118.38,242.535,132.59,238.363,146.653"/>
	<rect x="1" y="2.567" fill="none" width="488.881" height="390"/>
	<path fill="#134395" d="M199.461,245.383c0,1.681-0.164,2.875-0.492,3.575c-0.324,0.703-1.071,1.472-2.235,2.313
		c-1.168,0.698-2.343,1.191-3.531,1.473c-1.191,0.281-2.832,0.422-4.93,0.422h-13.984c-2.055,0-3.711-0.141-4.969-0.422
		c-1.257-0.281-2.468-0.774-3.632-1.473c-1.075-0.793-1.797-1.574-2.168-2.349c-0.375-0.769-0.559-1.929-0.559-3.468V222.04h10.875
		v22.136c0,0.375,0.012,0.704,0.035,0.981c0.024,0.277,0.207,0.558,0.559,0.836c0.347,0.281,1.386,0.422,3.109,0.422h7.34
		c1.633,0,2.68-0.188,3.148-0.563c0.231-0.138,0.383-0.302,0.453-0.484c0.071-0.188,0.106-0.535,0.106-1.051V222.04h10.875V245.383"
		/>
	<path fill="#134395" d="M204.609,228.286c0-2.047,0.793-3.645,2.379-4.785c1.586-1.141,3.852-1.711,6.793-1.711
		c2.332,0,4.317,0.438,5.949,1.324c1.633,0.879,2.801,2.113,3.5,3.69l7.629,17.985v-22.707h10.375v25.828
		c0,1.633-0.871,3.004-2.617,4.101c-1.746,1.103-3.902,1.653-6.461,1.653c-4.797,0-7.918-1.754-9.363-5.262l-7.684-17.853v22.614
		h-10.5V228.286"/>
	<path fill="#134395" d="M246.262,228.344c0-2.144,0.777-3.655,2.34-4.519s2.867-1.375,3.918-1.539
		c1.047-0.168,2.785-0.246,5.211-0.246h21.469v6.75h-18.352c-2.477,0-3.711,0.648-3.711,1.953v3.422h22.063v6.75h-22.063v12.25
		h-10.875V228.344"/>
</g>
</svg>
